<svg xmlns="http://www.w3.org/2000/svg" xmlns:xlink="http://www.w3.org/1999/xlink" viewBox="0 0 319.24 320.21"><defs><style>.cls-1,.cls-4,.cls-96,.cls-97{fill:none;}.cls-2{clip-path:url(#clip-path);}.cls-3{fill:#f9eded;}.cls-4,.cls-94,.cls-96{stroke:#000;}.cls-4,.cls-94,.cls-96,.cls-97{stroke-miterlimit:10;}.cls-4{stroke-width:0.09px;}.cls-5{clip-path:url(#clip-path-3);}.cls-6{fill:url(#Dégradé_sans_nom_23);}.cls-7{clip-path:url(#clip-path-7);}.cls-8{fill:url(#Dégradé_sans_nom_22);}.cls-9{clip-path:url(#clip-path-8);}.cls-10{fill:url(#Dégradé_sans_nom_22-2);}.cls-11{clip-path:url(#clip-path-9);}.cls-12{fill:url(#Dégradé_sans_nom_22-3);}.cls-13{clip-path:url(#clip-path-10);}.cls-14{fill:url(#Dégradé_sans_nom_22-4);}.cls-15{clip-path:url(#clip-path-11);}.cls-16{fill:url(#Dégradé_sans_nom_22-5);}.cls-17{clip-path:url(#clip-path-12);}.cls-18{fill:url(#Dégradé_sans_nom_22-6);}.cls-19{clip-path:url(#clip-path-13);}.cls-20{fill:url(#Dégradé_sans_nom_22-7);}.cls-21{clip-path:url(#clip-path-14);}.cls-22{fill:url(#Dégradé_sans_nom_22-8);}.cls-23{clip-path:url(#clip-path-15);}.cls-24{fill:url(#Dégradé_sans_nom_22-9);}.cls-25{clip-path:url(#clip-path-16);}.cls-26{fill:url(#Dégradé_sans_nom_22-10);}.cls-27{clip-path:url(#clip-path-17);}.cls-28{fill:url(#Dégradé_sans_nom_22-11);}.cls-29{clip-path:url(#clip-path-18);}.cls-30{fill:url(#Dégradé_sans_nom_22-12);}.cls-31{clip-path:url(#clip-path-19);}.cls-32{fill:url(#Dégradé_sans_nom_22-13);}.cls-33{clip-path:url(#clip-path-20);}.cls-34{fill:url(#Dégradé_sans_nom_22-14);}.cls-35{clip-path:url(#clip-path-21);}.cls-36{fill:url(#Dégradé_sans_nom_22-15);}.cls-37{clip-path:url(#clip-path-22);}.cls-38{fill:url(#Dégradé_sans_nom_22-16);}.cls-39{clip-path:url(#clip-path-23);}.cls-40{fill:url(#Dégradé_sans_nom_22-17);}.cls-41{clip-path:url(#clip-path-24);}.cls-42{fill:url(#Dégradé_sans_nom_22-18);}.cls-43{clip-path:url(#clip-path-25);}.cls-44{fill:url(#Dégradé_sans_nom_22-19);}.cls-45{clip-path:url(#clip-path-26);}.cls-46{fill:url(#Dégradé_sans_nom_22-20);}.cls-47{clip-path:url(#clip-path-27);}.cls-48{fill:url(#Dégradé_sans_nom_23-3);}.cls-49{clip-path:url(#clip-path-29);}.cls-50{clip-path:url(#clip-path-31);}.cls-51{fill:url(#Dégradé_sans_nom_23-4);}.cls-52{clip-path:url(#clip-path-35);}.cls-53{fill:url(#Dégradé_sans_nom_22-21);}.cls-54{clip-path:url(#clip-path-36);}.cls-55{fill:url(#Dégradé_sans_nom_22-22);}.cls-56{clip-path:url(#clip-path-37);}.cls-57{fill:url(#Dégradé_sans_nom_22-23);}.cls-58{clip-path:url(#clip-path-38);}.cls-59{fill:url(#Dégradé_sans_nom_22-24);}.cls-60{clip-path:url(#clip-path-39);}.cls-61{fill:url(#Dégradé_sans_nom_22-25);}.cls-62{clip-path:url(#clip-path-40);}.cls-63{fill:url(#Dégradé_sans_nom_22-26);}.cls-64{clip-path:url(#clip-path-41);}.cls-65{fill:url(#Dégradé_sans_nom_22-27);}.cls-66{clip-path:url(#clip-path-42);}.cls-67{fill:url(#Dégradé_sans_nom_22-28);}.cls-68{clip-path:url(#clip-path-43);}.cls-69{fill:url(#Dégradé_sans_nom_22-29);}.cls-70{clip-path:url(#clip-path-44);}.cls-71{fill:url(#Dégradé_sans_nom_22-30);}.cls-72{clip-path:url(#clip-path-45);}.cls-73{fill:url(#Dégradé_sans_nom_22-31);}.cls-74{clip-path:url(#clip-path-46);}.cls-75{fill:url(#Dégradé_sans_nom_22-32);}.cls-76{clip-path:url(#clip-path-47);}.cls-77{fill:url(#Dégradé_sans_nom_22-33);}.cls-78{clip-path:url(#clip-path-48);}.cls-79{fill:url(#Dégradé_sans_nom_22-34);}.cls-80{clip-path:url(#clip-path-49);}.cls-81{fill:url(#Dégradé_sans_nom_22-35);}.cls-82{clip-path:url(#clip-path-50);}.cls-83{fill:url(#Dégradé_sans_nom_22-36);}.cls-84{clip-path:url(#clip-path-51);}.cls-85{fill:url(#Dégradé_sans_nom_22-37);}.cls-86{clip-path:url(#clip-path-52);}.cls-87{fill:url(#Dégradé_sans_nom_22-38);}.cls-88{clip-path:url(#clip-path-53);}.cls-89{fill:url(#Dégradé_sans_nom_22-39);}.cls-90{clip-path:url(#clip-path-54);}.cls-91{fill:url(#Dégradé_sans_nom_22-40);}.cls-92{clip-path:url(#clip-path-55);}.cls-93{fill:url(#Dégradé_sans_nom_23-6);}.cls-94{fill:#020202;}.cls-95{font-size:27.7px;}.cls-95,.cls-98{fill:#268fd2;font-family:MyriadPro-Regular, Myriad Pro;}.cls-97{stroke:#ff8901;stroke-width:9px;}.cls-98{font-size:48px;}</style><clipPath id="clip-path" transform="translate(-223.61 -137.71)"><rect class="cls-1" x="292.73" y="211.12" width="81.5" height="66"/></clipPath><clipPath id="clip-path-3" transform="translate(-223.61 -137.71)"><path class="cls-1" d="M326.87,246c0,5,5,9,11.14,9s11.13-4,11.13-9-5-9-11.13-9-11.14,4-11.14,9"/></clipPath><radialGradient id="Dégradé_sans_nom_23" cx="0" cy="0" r="1" gradientTransform="matrix(11.13, 0, 0, -9.02, 114.4, 108.33)" gradientUnits="userSpaceOnUse"><stop offset="0" stop-color="#cddeea"/><stop offset="0.24" stop-color="#cddeea"/><stop offset="0.34" stop-color="#b1d8f3"/><stop offset="0.45" stop-color="#9cd4fa"/><stop offset="0.55" stop-color="#90d1fe"/><stop offset="0.65" stop-color="#8cd0ff"/><stop offset="0.68" stop-color="#76afd6"/><stop offset="0.71" stop-color="#6291b2"/><stop offset="0.74" stop-color="#527994"/><stop offset="0.78" stop-color="#45667d"/><stop offset="0.81" stop-color="#3c586d"/><stop offset="0.85" stop-color="#375163"/><stop offset="0.9" stop-color="#354e60"/><stop offset="1" stop-color="#354e60"/></radialGradient><clipPath id="clip-path-7" transform="translate(-223.61 -137.71)"><polygon class="cls-1" points="327.08 247.78 327.29 248.48 338.01 246.04 327.08 247.78"/></clipPath><linearGradient id="Dégradé_sans_nom_22" x1="1.61" y1="-6.18" x2="1.71" y2="-6.18" gradientTransform="matrix(96.52, 31.36, 31.36, -96.52, 142.33, -538.87)" gradientUnits="userSpaceOnUse"><stop offset="0" stop-color="#354e60"/><stop offset="1" stop-color="#dae1e6"/></linearGradient><clipPath id="clip-path-8" transform="translate(-223.61 -137.71)"><polygon class="cls-1" points="326.88 245.68 338.01 246.04 326.95 244.96 326.88 245.68"/></clipPath><linearGradient id="Dégradé_sans_nom_22-2" x1="3.58" y1="-5.64" x2="3.67" y2="-5.64" gradientTransform="matrix(82.1, 59.65, 59.65, -82.1, 147.76, -571.74)" xlink:href="#Dégradé_sans_nom_22"/><clipPath id="clip-path-9" transform="translate(-223.61 -137.71)"><polygon class="cls-1" points="327.56 242.91 338.01 246.04 327.9 242.25 327.56 242.91"/></clipPath><linearGradient id="Dégradé_sans_nom_22-3" x1="5.28" y1="-4.53" x2="5.38" y2="-4.53" gradientTransform="matrix(59.65, 82.1, 82.1, -59.65, 163.08, -601.32)" xlink:href="#Dégradé_sans_nom_22"/><clipPath id="clip-path-10" transform="translate(-223.61 -137.71)"><polygon class="cls-1" points="329.27 240.45 338.01 246.04 329.85 239.91 329.27 240.45"/></clipPath><linearGradient id="Dégradé_sans_nom_22-4" x1="6.57" y1="-2.94" x2="6.65" y2="-2.94" gradientTransform="matrix(31.36, 96.52, 96.52, -31.36, 186.79, -624.72)" xlink:href="#Dégradé_sans_nom_22"/><clipPath id="clip-path-11" transform="translate(-223.61 -137.71)"><polygon class="cls-1" points="331.83 238.54 338.01 246.04 332.58 238.16 331.83 238.54"/></clipPath><linearGradient id="Dégradé_sans_nom_22-5" x1="7.29" y1="-1.04" x2="7.37" y2="-1.04" gradientTransform="matrix(0, 101.48, 101.48, 0, 216.58, -639.65)" xlink:href="#Dégradé_sans_nom_22"/><clipPath id="clip-path-12" transform="translate(-223.61 -137.71)"><polygon class="cls-1" points="335 237.36 338.01 246.04 335.86 237.19 335 237.36"/></clipPath><linearGradient id="Dégradé_sans_nom_22-6" x1="7.39" y1="1" x2="7.47" y2="1" gradientTransform="matrix(-31.36, 96.52, 96.52, 31.36, 249.51, -644.64)" xlink:href="#Dégradé_sans_nom_22"/><clipPath id="clip-path-13" transform="translate(-223.61 -137.71)"><polygon class="cls-1" points="338.01 246.04 339.34 237.09 338.46 237.03 338.01 246.04"/></clipPath><linearGradient id="Dégradé_sans_nom_22-7" x1="6.85" y1="2.97" x2="6.94" y2="2.97" gradientTransform="matrix(-59.65, 82.1, 82.1, 59.65, 282.38, -639.21)" xlink:href="#Dégradé_sans_nom_22"/><clipPath id="clip-path-14" transform="translate(-223.61 -137.71)"><polygon class="cls-1" points="338.01 246.04 342.69 237.86 341.87 237.58 338.01 246.04"/></clipPath><linearGradient id="Dégradé_sans_nom_22-8" x1="5.72" y1="4.67" x2="5.82" y2="4.67" gradientTransform="matrix(-82.1, 59.65, 59.65, 82.1, 311.96, -623.88)" xlink:href="#Dégradé_sans_nom_22"/><clipPath id="clip-path-15" transform="translate(-223.61 -137.71)"><polygon class="cls-1" points="338.01 246.04 345.58 239.43 344.91 238.97 338.01 246.04"/></clipPath><linearGradient id="Dégradé_sans_nom_22-9" x1="4.13" y1="5.95" x2="4.23" y2="5.95" gradientTransform="matrix(-96.52, 31.36, 31.36, 96.52, 335.36, -600.17)" xlink:href="#Dégradé_sans_nom_22"/><clipPath id="clip-path-16" transform="translate(-223.61 -137.71)"><polygon class="cls-1" points="338.01 246.04 347.73 241.65 347.27 241.04 338.01 246.04"/></clipPath><linearGradient id="Dégradé_sans_nom_22-10" x1="2.23" y1="6.66" x2="2.32" y2="6.66" gradientTransform="matrix(-101.48, 0, 0, 101.48, 350.29, -570.39)" xlink:href="#Dégradé_sans_nom_22"/><clipPath id="clip-path-17" transform="translate(-223.61 -137.71)"><polygon class="cls-1" points="338.01 246.04 348.93 244.3 348.73 243.6 338.01 246.04"/></clipPath><linearGradient id="Dégradé_sans_nom_22-11" x1="0.19" y1="6.76" x2="0.29" y2="6.76" gradientTransform="matrix(-96.52, -31.36, -31.36, 96.52, 355.28, -537.45)" xlink:href="#Dégradé_sans_nom_22"/><clipPath id="clip-path-18" transform="translate(-223.61 -137.71)"><polygon class="cls-1" points="349.06 247.12 349.13 246.4 338.01 246.04 349.06 247.12"/></clipPath><linearGradient id="Dégradé_sans_nom_22-12" x1="-1.77" y1="6.22" x2="-1.67" y2="6.22" gradientTransform="matrix(-82.1, -59.65, -59.65, 82.1, 349.85, -504.59)" xlink:href="#Dégradé_sans_nom_22"/><clipPath id="clip-path-19" transform="translate(-223.61 -137.71)"><polygon class="cls-1" points="348.11 249.83 348.45 249.17 338.01 246.04 348.11 249.83"/></clipPath><linearGradient id="Dégradé_sans_nom_22-13" x1="-3.47" y1="5.1" x2="-3.37" y2="5.1" gradientTransform="matrix(-59.65, -82.1, -82.1, 59.65, 334.52, -475)" xlink:href="#Dégradé_sans_nom_22"/><clipPath id="clip-path-20" transform="translate(-223.61 -137.71)"><polygon class="cls-1" points="346.17 252.17 346.75 251.63 338.01 246.04 346.17 252.17"/></clipPath><linearGradient id="Dégradé_sans_nom_22-14" x1="-4.73" y1="3.51" x2="-4.65" y2="3.51" gradientTransform="matrix(-31.36, -96.52, -96.52, 31.36, 310.81, -451.61)" xlink:href="#Dégradé_sans_nom_22"/><clipPath id="clip-path-21" transform="translate(-223.61 -137.71)"><polygon class="cls-1" points="343.43 253.92 344.19 253.54 338.01 246.04 343.43 253.92"/></clipPath><linearGradient id="Dégradé_sans_nom_22-15" x1="-5.45" y1="1.61" x2="-5.37" y2="1.61" gradientTransform="matrix(0, -101.48, -101.48, 0, 281.03, -436.68)" xlink:href="#Dégradé_sans_nom_22"/><clipPath id="clip-path-22" transform="translate(-223.61 -137.71)"><polygon class="cls-1" points="340.16 254.89 341.02 254.72 338.01 246.04 340.16 254.89"/></clipPath><linearGradient id="Dégradé_sans_nom_22-16" x1="-5.55" y1="-0.42" x2="-5.46" y2="-0.42" gradientTransform="matrix(31.36, -96.52, -96.52, -31.36, 248.09, -431.69)" xlink:href="#Dégradé_sans_nom_22"/><clipPath id="clip-path-23" transform="translate(-223.61 -137.71)"><polygon class="cls-1" points="336.68 254.99 337.56 255.05 338.01 246.04 336.68 254.99"/></clipPath><linearGradient id="Dégradé_sans_nom_22-17" x1="-5.02" y1="-2.38" x2="-4.93" y2="-2.38" gradientTransform="matrix(59.65, -82.1, -82.1, -59.65, 215.22, -437.12)" xlink:href="#Dégradé_sans_nom_22"/><clipPath id="clip-path-24" transform="translate(-223.61 -137.71)"><polygon class="cls-1" points="333.33 254.22 334.14 254.5 338.01 246.04 333.33 254.22"/></clipPath><linearGradient id="Dégradé_sans_nom_22-18" x1="-3.91" y1="-4.08" x2="-3.81" y2="-4.08" gradientTransform="matrix(82.1, -59.65, -59.65, -82.1, 185.64, -452.44)" xlink:href="#Dégradé_sans_nom_22"/><clipPath id="clip-path-25" transform="translate(-223.61 -137.71)"><polygon class="cls-1" points="330.43 252.65 331.11 253.12 338.01 246.04 330.43 252.65"/></clipPath><linearGradient id="Dégradé_sans_nom_22-19" x1="-2.32" y1="-5.35" x2="-2.22" y2="-5.35" gradientTransform="matrix(96.52, -31.36, -31.36, -96.52, 162.25, -476.15)" xlink:href="#Dégradé_sans_nom_22"/><clipPath id="clip-path-26" transform="translate(-223.61 -137.71)"><polygon class="cls-1" points="328.28 250.43 328.74 251.04 338.01 246.04 328.28 250.43"/></clipPath><linearGradient id="Dégradé_sans_nom_22-20" x1="-0.42" y1="-6.08" x2="-0.32" y2="-6.08" gradientTransform="matrix(101.48, 0, 0, -101.48, 147.32, -505.94)" xlink:href="#Dégradé_sans_nom_22"/><clipPath id="clip-path-27" transform="translate(-223.61 -137.71)"><path class="cls-1" d="M334.37,246c0,1.63,1.63,3,3.64,3s3.63-1.32,3.63-3S340,243.1,338,243.1s-3.64,1.31-3.64,2.94"/></clipPath><radialGradient id="Dégradé_sans_nom_23-3" cx="0" cy="0" r="1" gradientTransform="matrix(1.69, 0, 0, -0.62, 113.34, 106.93)" xlink:href="#Dégradé_sans_nom_23"/><clipPath id="clip-path-29" transform="translate(-223.61 -137.71)"><rect class="cls-1" x="383.23" y="211.12" width="81.5" height="66"/></clipPath><clipPath id="clip-path-31" transform="translate(-223.61 -137.71)"><path class="cls-1" d="M417.37,246c0,5,5,9,11.13,9s11.14-4,11.14-9-5-9-11.14-9-11.13,4-11.13,9"/></clipPath><radialGradient id="Dégradé_sans_nom_23-4" cx="0" cy="0" r="1" gradientTransform="matrix(11.13, 0, 0, -9.02, 204.9, 108.33)" xlink:href="#Dégradé_sans_nom_23"/><clipPath id="clip-path-35" transform="translate(-223.61 -137.71)"><polygon class="cls-1" points="417.58 247.78 417.79 248.48 428.5 246.04 417.58 247.78"/></clipPath><linearGradient id="Dégradé_sans_nom_22-21" x1="2.46" y1="-5.9" x2="2.56" y2="-5.9" xlink:href="#Dégradé_sans_nom_22"/><clipPath id="clip-path-36" transform="translate(-223.61 -137.71)"><polygon class="cls-1" points="417.38 245.68 428.5 246.04 417.45 244.96 417.38 245.68"/></clipPath><linearGradient id="Dégradé_sans_nom_22-22" x1="4.3" y1="-5.12" x2="4.4" y2="-5.12" gradientTransform="matrix(82.1, 59.65, 59.65, -82.1, 147.76, -571.74)" xlink:href="#Dégradé_sans_nom_22"/><clipPath id="clip-path-37" transform="translate(-223.61 -137.71)"><polygon class="cls-1" points="418.06 242.91 428.5 246.04 418.4 242.25 418.06 242.91"/></clipPath><linearGradient id="Dégradé_sans_nom_22-23" x1="5.81" y1="-3.81" x2="5.9" y2="-3.81" gradientTransform="matrix(59.65, 82.1, 82.1, -59.65, 163.08, -601.32)" xlink:href="#Dégradé_sans_nom_22"/><clipPath id="clip-path-38" transform="translate(-223.61 -137.71)"><polygon class="cls-1" points="419.77 240.45 428.5 246.04 420.34 239.91 419.77 240.45"/></clipPath><linearGradient id="Dégradé_sans_nom_22-24" x1="6.84" y1="-2.09" x2="6.93" y2="-2.09" gradientTransform="matrix(31.36, 96.52, 96.52, -31.36, 186.79, -624.72)" xlink:href="#Dégradé_sans_nom_22"/><clipPath id="clip-path-39" transform="translate(-223.61 -137.71)"><polygon class="cls-1" points="422.33 238.54 428.5 246.04 423.08 238.16 422.33 238.54"/></clipPath><linearGradient id="Dégradé_sans_nom_22-25" x1="7.29" y1="-0.15" x2="7.37" y2="-0.15" gradientTransform="matrix(0, 101.48, 101.48, 0, 216.58, -639.65)" xlink:href="#Dégradé_sans_nom_22"/><clipPath id="clip-path-40" transform="translate(-223.61 -137.71)"><polygon class="cls-1" points="425.49 237.36 428.5 246.04 426.35 237.19 425.49 237.36"/></clipPath><linearGradient id="Dégradé_sans_nom_22-26" x1="7.11" y1="1.85" x2="7.2" y2="1.85" gradientTransform="matrix(-31.36, 96.52, 96.52, 31.36, 249.51, -644.64)" xlink:href="#Dégradé_sans_nom_22"/><clipPath id="clip-path-41" transform="translate(-223.61 -137.71)"><polygon class="cls-1" points="428.5 246.04 429.83 237.09 428.95 237.03 428.5 246.04"/></clipPath><linearGradient id="Dégradé_sans_nom_22-27" x1="6.32" y1="3.69" x2="6.41" y2="3.69" gradientTransform="matrix(-59.65, 82.1, 82.1, 59.65, 282.38, -639.21)" xlink:href="#Dégradé_sans_nom_22"/><clipPath id="clip-path-42" transform="translate(-223.61 -137.71)"><polygon class="cls-1" points="428.5 246.04 433.19 237.86 432.37 237.58 428.5 246.04"/></clipPath><linearGradient id="Dégradé_sans_nom_22-28" x1="5" y1="5.2" x2="5.1" y2="5.2" gradientTransform="matrix(-82.1, 59.65, 59.65, 82.1, 311.96, -623.88)" xlink:href="#Dégradé_sans_nom_22"/><clipPath id="clip-path-43" transform="translate(-223.61 -137.71)"><polygon class="cls-1" points="428.5 246.04 436.08 239.43 435.41 238.97 428.5 246.04"/></clipPath><linearGradient id="Dégradé_sans_nom_22-29" x1="3.28" y1="6.22" x2="3.38" y2="6.22" gradientTransform="matrix(-96.52, 31.36, 31.36, 96.52, 335.36, -600.17)" xlink:href="#Dégradé_sans_nom_22"/><clipPath id="clip-path-44" transform="translate(-223.61 -137.71)"><polygon class="cls-1" points="428.5 246.04 438.23 241.65 437.77 241.04 428.5 246.04"/></clipPath><linearGradient id="Dégradé_sans_nom_22-30" x1="1.34" y1="6.66" x2="1.43" y2="6.66" gradientTransform="matrix(-101.48, 0, 0, 101.48, 350.29, -570.39)" xlink:href="#Dégradé_sans_nom_22"/><clipPath id="clip-path-45" transform="translate(-223.61 -137.71)"><polygon class="cls-1" points="428.5 246.04 439.43 244.3 439.22 243.6 428.5 246.04"/></clipPath><linearGradient id="Dégradé_sans_nom_22-31" x1="-0.65" y1="6.48" x2="-0.56" y2="6.48" gradientTransform="matrix(-96.52, -31.36, -31.36, 96.52, 355.28, -537.45)" xlink:href="#Dégradé_sans_nom_22"/><clipPath id="clip-path-46" transform="translate(-223.61 -137.71)"><polygon class="cls-1" points="439.56 247.12 439.63 246.4 428.5 246.04 439.56 247.12"/></clipPath><linearGradient id="Dégradé_sans_nom_22-32" x1="-2.49" y1="5.7" x2="-2.39" y2="5.7" gradientTransform="matrix(-82.1, -59.65, -59.65, 82.1, 349.85, -504.59)" xlink:href="#Dégradé_sans_nom_22"/><clipPath id="clip-path-47" transform="translate(-223.61 -137.71)"><polygon class="cls-1" points="438.61 249.83 438.95 249.17 428.5 246.04 438.61 249.83"/></clipPath><linearGradient id="Dégradé_sans_nom_22-33" x1="-3.99" y1="4.38" x2="-3.9" y2="4.38" gradientTransform="matrix(-59.65, -82.1, -82.1, 59.65, 334.52, -475)" xlink:href="#Dégradé_sans_nom_22"/><clipPath id="clip-path-48" transform="translate(-223.61 -137.71)"><polygon class="cls-1" points="436.67 252.17 437.24 251.63 428.5 246.04 436.67 252.17"/></clipPath><linearGradient id="Dégradé_sans_nom_22-34" x1="-5.01" y1="2.67" x2="-4.92" y2="2.67" gradientTransform="matrix(-31.36, -96.52, -96.52, 31.36, 310.81, -451.61)" xlink:href="#Dégradé_sans_nom_22"/><clipPath id="clip-path-49" transform="translate(-223.61 -137.71)"><polygon class="cls-1" points="433.93 253.92 434.68 253.54 428.5 246.04 433.93 253.92"/></clipPath><linearGradient id="Dégradé_sans_nom_22-35" x1="-5.45" y1="0.72" x2="-5.37" y2="0.72" gradientTransform="matrix(0, -101.48, -101.48, 0, 281.03, -436.68)" xlink:href="#Dégradé_sans_nom_22"/><clipPath id="clip-path-50" transform="translate(-223.61 -137.71)"><polygon class="cls-1" points="430.66 254.89 431.52 254.72 428.5 246.04 430.66 254.89"/></clipPath><linearGradient id="Dégradé_sans_nom_22-36" x1="-5.27" y1="-1.27" x2="-5.19" y2="-1.27" gradientTransform="matrix(31.36, -96.52, -96.52, -31.36, 248.09, -431.69)" xlink:href="#Dégradé_sans_nom_22"/><clipPath id="clip-path-51" transform="translate(-223.61 -137.71)"><polygon class="cls-1" points="427.18 254.99 428.06 255.05 428.5 246.04 427.18 254.99"/></clipPath><linearGradient id="Dégradé_sans_nom_22-37" x1="-4.49" y1="-3.1" x2="-4.4" y2="-3.1" gradientTransform="matrix(59.65, -82.1, -82.1, -59.65, 215.22, -437.12)" xlink:href="#Dégradé_sans_nom_22"/><clipPath id="clip-path-52" transform="translate(-223.61 -137.71)"><polygon class="cls-1" points="423.82 254.22 424.64 254.5 428.5 246.04 423.82 254.22"/></clipPath><linearGradient id="Dégradé_sans_nom_22-38" x1="-3.19" y1="-4.6" x2="-3.09" y2="-4.6" gradientTransform="matrix(82.1, -59.65, -59.65, -82.1, 185.64, -452.44)" xlink:href="#Dégradé_sans_nom_22"/><clipPath id="clip-path-53" transform="translate(-223.61 -137.71)"><polygon class="cls-1" points="420.93 252.65 421.6 253.12 428.5 246.04 420.93 252.65"/></clipPath><linearGradient id="Dégradé_sans_nom_22-39" x1="-1.48" y1="-5.63" x2="-1.38" y2="-5.63" gradientTransform="matrix(96.52, -31.36, -31.36, -96.52, 162.25, -476.15)" xlink:href="#Dégradé_sans_nom_22"/><clipPath id="clip-path-54" transform="translate(-223.61 -137.71)"><polygon class="cls-1" points="418.78 250.43 419.24 251.04 428.5 246.04 418.78 250.43"/></clipPath><linearGradient id="Dégradé_sans_nom_22-40" x1="0.47" y1="-6.08" x2="0.57" y2="-6.08" gradientTransform="matrix(101.48, 0, 0, -101.48, 147.32, -505.94)" xlink:href="#Dégradé_sans_nom_22"/><clipPath id="clip-path-55" transform="translate(-223.61 -137.71)"><path class="cls-1" d="M424.87,246c0,1.63,1.63,3,3.63,3s3.64-1.32,3.64-3-1.63-2.94-3.64-2.94-3.63,1.31-3.63,2.94"/></clipPath><radialGradient id="Dégradé_sans_nom_23-6" cx="0" cy="0" r="1" gradientTransform="matrix(1.69, 0, 0, -0.62, 203.84, 106.93)" xlink:href="#Dégradé_sans_nom_23"/></defs><title>ContourLogoChat9PT</title><g id="yeuxEtmuseau"><g class="cls-2"><g class="cls-2"><path class="cls-3" d="M337.68,236.65a24.79,24.79,0,0,0-19.45,9.55,24.61,24.61,0,0,0,38.91,0,24.82,24.82,0,0,0-19.46-9.55" transform="translate(-223.61 -137.71)"/><ellipse class="cls-4" cx="114.07" cy="108.49" rx="19.46" ry="9.54"/><ellipse class="cls-4" cx="114.4" cy="108.33" rx="11.13" ry="9.02"/></g><g class="cls-5"><rect class="cls-6" x="103.26" y="99.31" width="22.27" height="18.03"/></g><g class="cls-2"><ellipse class="cls-4" cx="114.4" cy="108.33" rx="11.13" ry="9.02"/></g><g class="cls-5"><rect class="cls-6" x="103.26" y="99.31" width="22.27" height="18.03"/></g><g class="cls-2"><ellipse class="cls-4" cx="114.4" cy="108.33" rx="11.13" ry="9.02"/></g><g class="cls-7"><polygon class="cls-8" points="104.52 105.73 115.28 108.56 113.36 113.37 102.59 110.54 104.52 105.73"/></g><g class="cls-9"><polygon class="cls-10" points="107.12 102.97 115.03 107.63 110.56 112.61 102.64 107.96 107.12 102.97"/></g><g class="cls-11"><polygon class="cls-12" points="110.79 100.52 116.63 107.02 107.56 112.35 101.73 105.85 110.79 100.52"/></g><g class="cls-13"><polygon class="cls-14" points="113.56 100.12 116.63 107.75 106.5 110.41 103.44 102.78 113.56 100.12"/></g><g class="cls-15"><rect class="cls-16" x="108.22" y="100.45" width="6.18" height="7.88"/></g><g class="cls-17"><polygon class="cls-18" points="117.61 100.33 114.11 109.05 108.18 107.48 111.67 98.77 117.61 100.33"/></g><g class="cls-19"><polygon class="cls-20" points="121.02 102.43 115.27 108.84 109.11 105.22 114.86 98.81 121.02 102.43"/></g><g class="cls-21"><polygon class="cls-22" points="124.05 105.41 116.02 110.13 109.43 102.8 117.46 98.07 124.05 105.41"/></g><g class="cls-23"><polygon class="cls-24" points="124.54 107.66 115.12 110.13 111.83 101.93 121.25 99.45 124.54 107.66"/></g><g class="cls-25"><rect class="cls-26" x="114.4" y="103.33" width="9.73" height="5"/></g><g class="cls-27"><polygon class="cls-28" points="124.28 110.93 113.51 108.1 115.44 103.29 126.21 106.12 124.28 110.93"/></g><g class="cls-29"><polygon class="cls-30" points="121.68 113.69 113.77 109.03 118.24 104.05 126.16 108.7 121.68 113.69"/></g><g class="cls-31"><polygon class="cls-32" points="118.01 116.14 112.17 109.64 121.23 104.31 127.07 110.81 118.01 116.14"/></g><g class="cls-33"><polygon class="cls-34" points="115.23 116.54 112.17 108.92 122.3 106.25 125.36 113.88 115.23 116.54"/></g><g class="cls-35"><rect class="cls-36" x="114.4" y="108.33" width="6.18" height="7.88"/></g><g class="cls-37"><polygon class="cls-38" points="111.19 116.33 114.69 107.61 120.62 109.17 117.12 117.89 111.19 116.33"/></g><g class="cls-39"><polygon class="cls-40" points="107.78 114.23 113.53 107.82 119.69 111.44 113.94 117.85 107.78 114.23"/></g><g class="cls-41"><polygon class="cls-42" points="104.75 111.25 112.78 106.53 119.36 113.86 111.33 118.59 104.75 111.25"/></g><g class="cls-43"><polygon class="cls-44" points="104.26 109.01 113.67 106.53 116.97 114.73 107.55 117.21 104.26 109.01"/></g><g class="cls-45"><rect class="cls-46" x="104.67" y="108.33" width="9.73" height="5"/></g><g class="cls-47"><rect class="cls-48" x="110.76" y="105.39" width="7.27" height="5.89"/></g><g class="cls-2"><ellipse class="cls-4" cx="114.4" cy="108.33" rx="3.64" ry="2.94"/></g></g><g class="cls-49"><g class="cls-49"><path class="cls-3" d="M428.18,236.65a24.82,24.82,0,0,0-19.46,9.55,24.61,24.61,0,0,0,38.91,0,24.79,24.79,0,0,0-19.45-9.55" transform="translate(-223.61 -137.71)"/><ellipse class="cls-4" cx="204.57" cy="108.49" rx="19.46" ry="9.54"/><ellipse class="cls-4" cx="204.9" cy="108.33" rx="11.13" ry="9.02"/></g><g class="cls-50"><rect class="cls-51" x="193.76" y="99.31" width="22.27" height="18.03"/></g><g class="cls-49"><ellipse class="cls-4" cx="204.9" cy="108.33" rx="11.13" ry="9.02"/></g><g class="cls-50"><rect class="cls-51" x="193.76" y="99.31" width="22.27" height="18.03"/></g><g class="cls-49"><ellipse class="cls-4" cx="204.9" cy="108.33" rx="11.13" ry="9.02"/></g><g class="cls-52"><polygon class="cls-53" points="195.01 105.73 205.78 108.56 203.85 113.37 193.08 110.54 195.01 105.73"/></g><g class="cls-54"><polygon class="cls-55" points="197.61 102.97 205.53 107.63 201.05 112.61 193.14 107.96 197.61 102.97"/></g><g class="cls-56"><polygon class="cls-57" points="201.29 100.52 207.12 107.02 198.06 112.35 192.23 105.85 201.29 100.52"/></g><g class="cls-58"><polygon class="cls-59" points="204.06 100.12 207.12 107.75 196.99 110.41 193.93 102.78 204.06 100.12"/></g><g class="cls-60"><rect class="cls-61" x="198.72" y="100.45" width="6.18" height="7.88"/></g><g class="cls-62"><polygon class="cls-63" points="208.11 100.33 204.61 109.05 198.67 107.48 202.17 98.77 208.11 100.33"/></g><g class="cls-64"><polygon class="cls-65" points="211.52 102.43 205.77 108.84 199.6 105.22 205.35 98.81 211.52 102.43"/></g><g class="cls-66"><polygon class="cls-67" points="214.54 105.41 206.51 110.13 199.93 102.8 207.96 98.07 214.54 105.41"/></g><g class="cls-68"><polygon class="cls-69" points="215.04 107.66 205.62 110.13 202.33 101.93 211.75 99.45 215.04 107.66"/></g><g class="cls-70"><rect class="cls-71" x="204.9" y="103.33" width="9.73" height="5"/></g><g class="cls-72"><polygon class="cls-73" points="214.78 110.93 204.01 108.1 205.94 103.29 216.71 106.12 214.78 110.93"/></g><g class="cls-74"><polygon class="cls-75" points="212.18 113.69 204.26 109.03 208.74 104.05 216.65 108.7 212.18 113.69"/></g><g class="cls-76"><polygon class="cls-77" points="208.5 116.14 202.67 109.64 211.73 104.31 217.56 110.81 208.5 116.14"/></g><g class="cls-78"><polygon class="cls-79" points="205.73 116.54 202.67 108.92 212.8 106.25 215.86 113.88 205.73 116.54"/></g><g class="cls-80"><rect class="cls-81" x="204.9" y="108.33" width="6.18" height="7.88"/></g><g class="cls-82"><polygon class="cls-83" points="201.68 116.33 205.18 107.61 211.12 109.17 207.62 117.89 201.68 116.33"/></g><g class="cls-84"><polygon class="cls-85" points="198.28 114.23 204.03 107.82 210.19 111.44 204.44 117.85 198.28 114.23"/></g><g class="cls-86"><polygon class="cls-87" points="195.25 111.25 203.28 106.53 209.86 113.86 201.83 118.59 195.25 111.25"/></g><g class="cls-88"><polygon class="cls-89" points="194.75 109.01 204.17 106.53 207.46 114.73 198.04 117.21 194.75 109.01"/></g><g class="cls-90"><rect class="cls-91" x="195.17" y="108.33" width="9.73" height="5"/></g><g class="cls-92"><rect class="cls-93" x="201.26" y="105.39" width="7.27" height="5.89"/></g><g class="cls-49"><ellipse class="cls-4" cx="204.9" cy="108.33" rx="3.64" ry="2.94"/></g></g><path class="cls-94" d="M392.15,286.53c.1-27,14.94-50.76,37.5-64.92a84.58,84.58,0,0,0-28,20.88l-17.79-.06-17.8-.07a85.16,85.16,0,0,0-30.87-22.51C359,234,374.62,258.57,374.52,286.46c-.16,42.21-36.37,76.55-81.79,78.57,1.54.08,3.07.12,4.62.13,47.55.18,86.21-33.92,86.37-76.17h0c-.16,42.25,38.25,76.64,85.8,76.82,1.41,0,2.81,0,4.21-.08C428.15,363.55,392,328.86,392.15,286.53Z" transform="translate(-223.61 -137.71)"/></g><g id="team"><text class="cls-95" transform="matrix(0.87, -0.49, 0.49, 0.87, 129.61, 66.82)">T</text><text class="cls-95" transform="matrix(0.96, -0.25, 0.25, 0.97, 140.56, 60.51)">E</text><text class="cls-95" transform="matrix(1, 0.03, -0.03, 1, 152.48, 56.97)">A</text><text class="cls-95" transform="translate(167.96 56.61) rotate(22.34)">M</text></g><g id="moustaches"><line class="cls-96" x1="15.44" y1="154.11" x2="110.24" y2="137.4"/><line class="cls-96" x1="210.09" y1="139.29" x2="290.15" y2="152.22"/><line class="cls-96" x1="204.07" y1="154.71" x2="286.23" y2="183.28"/><line class="cls-96" x1="203.14" y1="171.37" x2="279.1" y2="213.77"/><line class="cls-96" x1="24.31" y1="185.3" x2="113.94" y2="152.68"/><line class="cls-96" x1="38.85" y1="215.01" x2="116.57" y2="170.14"/><circle class="cls-97" cx="159.62" cy="159.62" r="155.12"/></g><g id="project"><text class="cls-98" transform="matrix(0.87, 0.56, -0.54, 0.84, 63.84, 276.62)">P</text><text class="cls-98" transform="translate(89.73 292.73) rotate(21.22) scale(1.03 1)">R</text><text class="cls-98" transform="translate(119.12 303.99) rotate(8.41) scale(1.03 1)">O</text><text class="cls-98" transform="translate(156.73 308.45) rotate(-2.2) scale(1.03 1)">J</text><text class="cls-98" transform="matrix(1.01, -0.2, 0.19, 0.98, 178.2, 307.62)">E</text><text class="cls-98" transform="matrix(0.96, -0.39, 0.38, 0.93, 206.06, 302.06)">C</text><text class="cls-98" transform="matrix(0.85, -0.58, 0.56, 0.83, 237.69, 288.33)">T</text></g></svg>